<svg width="34" height="25" viewBox="0 0 34 25" fill="none" xmlns="http://www.w3.org/2000/svg">
<path d="M10.2191 20.0643L3.36294 13.213C2.9935 12.8438 2.49243 12.6364 1.96996 12.6364C1.4475 12.6364 0.946428 12.8438 0.576988 13.213C0.207549 13.5821 0 14.0828 0 14.6049C0 14.8635 0.050955 15.1194 0.149955 15.3583C0.248955 15.5971 0.394061 15.8141 0.576988 15.9969L8.83604 24.2501C9.60662 25.0201 10.8514 25.0201 11.622 24.2501L32.5265 3.36053C32.8959 2.99136 33.1034 2.49065 33.1034 1.96855C33.1034 1.44646 32.8959 0.945752 32.5265 0.576576C32.157 0.207401 31.656 0 31.1335 0C30.611 0 30.11 0.207401 29.7405 0.576576L10.2191 20.0643Z" fill="white"/>
</svg>
