<svg width="14" height="14" viewBox="0 0 14 14" fill="none" xmlns="http://www.w3.org/2000/svg">
<path d="M6.99992 0.333328C10.6819 0.333328 13.6666 3.31799 13.6666 6.99999C13.6666 10.682 10.6819 13.6667 6.99992 13.6667C3.31792 13.6667 0.333252 10.682 0.333252 6.99999C0.333252 3.31799 3.31792 0.333328 6.99992 0.333328ZM6.99325 5.66666H6.33325C6.16333 5.66685 5.9999 5.73191 5.87634 5.84856C5.75278 5.96521 5.67843 6.12463 5.66847 6.29426C5.65851 6.46389 5.7137 6.63091 5.82276 6.76122C5.93182 6.89152 6.08652 6.97526 6.25525 6.99533L6.33325 6.99999V10.3267C6.33325 10.6733 6.59592 10.96 6.93325 10.996L7.00659 11H7.33325C7.47346 11 7.6101 10.9558 7.72374 10.8737C7.83738 10.7916 7.92224 10.6757 7.96625 10.5426C8.01025 10.4094 8.01116 10.2658 7.96886 10.1322C7.92655 9.99849 7.84317 9.88156 7.73058 9.79799L7.66658 9.75599V6.33999C7.66658 5.99333 7.40392 5.70666 7.06659 5.67066L6.99325 5.66666ZM6.99992 3.66666C6.82311 3.66666 6.65354 3.7369 6.52851 3.86192C6.40349 3.98695 6.33325 4.15652 6.33325 4.33333C6.33325 4.51014 6.40349 4.67971 6.52851 4.80473C6.65354 4.92976 6.82311 4.99999 6.99992 4.99999C7.17673 4.99999 7.3463 4.92976 7.47132 4.80473C7.59635 4.67971 7.66658 4.51014 7.66658 4.33333C7.66658 4.15652 7.59635 3.98695 7.47132 3.86192C7.3463 3.7369 7.17673 3.66666 6.99992 3.66666Z" fill="#00AE1C"/>
</svg>
