<svg width="14" height="12" viewBox="0 0 14 12" fill="none" xmlns="http://www.w3.org/2000/svg">
<path d="M9.00016 0.666901C9.35378 0.666901 9.69292 0.807376 9.94297 1.05742C10.193 1.30747 10.3335 1.64661 10.3335 2.00023V2.6669H11.3468C11.5467 2.66693 11.744 2.71187 11.9241 2.79842C12.1042 2.88497 12.2626 3.0109 12.3875 3.1669L13.3742 4.4009C13.5636 4.63736 13.6668 4.93127 13.6668 5.23423V8.00023C13.6668 8.35386 13.5264 8.69299 13.2763 8.94304C13.0263 9.19309 12.6871 9.33357 12.3335 9.33357H11.6668C11.6668 9.864 11.4561 10.3727 11.081 10.7478C10.706 11.1229 10.1973 11.3336 9.66683 11.3336C9.1364 11.3336 8.62769 11.1229 8.25261 10.7478C7.87754 10.3727 7.66683 9.864 7.66683 9.33357H5.66683C5.66683 9.59621 5.6151 9.85628 5.51459 10.0989C5.41408 10.3416 5.26676 10.5621 5.08104 10.7478C4.89533 10.9335 4.67485 11.0808 4.4322 11.1813C4.18954 11.2818 3.92947 11.3336 3.66683 11.3336C3.40419 11.3336 3.14411 11.2818 2.90146 11.1813C2.65881 11.0808 2.43833 10.9335 2.25262 10.7478C2.0669 10.5621 1.91958 10.3416 1.81907 10.0989C1.71856 9.85628 1.66683 9.59621 1.66683 9.33357C1.31321 9.33357 0.974069 9.19309 0.72402 8.94304C0.473972 8.69299 0.333496 8.35386 0.333496 8.00023V2.00023C0.333496 1.64661 0.473972 1.30747 0.72402 1.05742C0.974069 0.807376 1.31321 0.666901 1.66683 0.666901H9.00016ZM3.66683 8.6669C3.49002 8.6669 3.32045 8.73714 3.19542 8.86216C3.0704 8.98719 3.00016 9.15676 3.00016 9.33357C3.00016 9.51038 3.0704 9.67995 3.19542 9.80497C3.32045 9.93 3.49002 10.0002 3.66683 10.0002C3.84364 10.0002 4.01321 9.93 4.13823 9.80497C4.26326 9.67995 4.3335 9.51038 4.3335 9.33357C4.3335 9.15676 4.26326 8.98719 4.13823 8.86216C4.01321 8.73714 3.84364 8.6669 3.66683 8.6669ZM9.66683 8.6669C9.49002 8.6669 9.32045 8.73714 9.19542 8.86216C9.0704 8.98719 9.00016 9.15676 9.00016 9.33357C9.00016 9.51038 9.0704 9.67995 9.19542 9.80497C9.32045 9.93 9.49002 10.0002 9.66683 10.0002C9.84364 10.0002 10.0132 9.93 10.1382 9.80497C10.2633 9.67995 10.3335 9.51038 10.3335 9.33357C10.3335 9.15676 10.2633 8.98719 10.1382 8.86216C10.0132 8.73714 9.84364 8.6669 9.66683 8.6669ZM11.3468 4.00023H10.3335V6.6669H12.3335V5.23357L11.3468 4.00023Z" fill="#00AE1C"/>
</svg>
