<svg width="12" height="14" viewBox="0 0 12 14" fill="none" xmlns="http://www.w3.org/2000/svg">
<path d="M6.00024 7.66692C7.59758 7.66692 9.05024 8.12959 10.1189 8.78092C10.6522 9.10759 11.1082 9.49092 11.4376 9.90759C11.7616 10.3183 12.0002 10.8089 12.0002 11.3336C12.0002 11.8969 11.7262 12.3409 11.3316 12.6576C10.9582 12.9576 10.4656 13.1563 9.94224 13.2949C8.89024 13.5729 7.48624 13.6669 6.00024 13.6669C4.51424 13.6669 3.11024 13.5736 2.05824 13.2949C1.53491 13.1563 1.04224 12.9576 0.668911 12.6576C0.273577 12.3403 0.000244141 11.8969 0.000244141 11.3336C0.000244141 10.8089 0.238911 10.3183 0.562911 9.90759C0.892244 9.49092 1.34758 9.10759 1.88158 8.78092C2.95024 8.12959 4.40358 7.66692 6.00024 7.66692ZM6.00024 0.333588C6.8843 0.333588 7.73215 0.684777 8.35727 1.3099C8.98239 1.93502 9.33358 2.78287 9.33358 3.66692C9.33358 4.55098 8.98239 5.39882 8.35727 6.02394C7.73215 6.64906 6.8843 7.00025 6.00024 7.00025C5.11619 7.00025 4.26834 6.64906 3.64322 6.02394C3.0181 5.39882 2.66691 4.55098 2.66691 3.66692C2.66691 2.78287 3.0181 1.93502 3.64322 1.3099C4.26834 0.684777 5.11619 0.333588 6.00024 0.333588Z" fill="#00AE1C"/>
</svg>
